<?xml version="1.0" standalone="no"?>
<!DOCTYPE svg PUBLIC "-//W3C//DTD SVG 20010904//EN"
 "http://www.w3.org/TR/2001/REC-SVG-20010904/DTD/svg10.dtd">
<svg version="1.0" xmlns="http://www.w3.org/2000/svg"
 width="344.000000pt" height="344.000000pt" viewBox="0 0 344.000000 344.000000"
 preserveAspectRatio="xMidYMid meet">
<metadata>
Created by potrace 1.14, written by Peter Selinger 2001-2017
</metadata>
<g transform="translate(0.000000,344.000000) scale(0.100000,-0.100000)"
fill="#000000" stroke="none">
<path d="M1461 2952 c-6 -2 -20 -21 -31 -43 -11 -21 -29 -43 -39 -49 -11 -5
-63 -10 -115 -10 -78 0 -96 3 -96 15 0 34 -38 38 -354 38 -301 0 -310 -1 -326
-21 -15 -19 -17 -53 -14 -334 2 -172 5 -329 8 -348 6 -49 25 -160 31 -190 3
-14 8 -53 10 -86 4 -56 2 -65 -24 -97 -28 -36 -28 -37 -27 -170 1 -129 2 -134
28 -165 26 -31 26 -32 23 -174 -2 -116 -7 -156 -25 -213 -28 -86 -28 -107 -1
-217 29 -112 29 -110 2 -197 -28 -87 -29 -117 -8 -138 14 -14 69 -16 446 -16
333 0 434 3 446 13 12 10 20 7 47 -19 43 -42 61 -46 203 -45 106 0 127 3 180
26 56 24 70 26 221 25 131 0 165 3 184 16 21 15 24 14 48 -15 42 -49 69 -55
258 -54 188 1 204 6 204 57 0 32 17 37 65 19 15 -6 48 -13 75 -16 81 -10 78
-29 76 498 l-1 456 -25 34 c-24 32 -25 40 -26 181 -1 136 -3 150 -23 171 -19
20 -20 26 -10 57 7 19 28 51 48 72 l36 38 0 162 c0 135 -4 180 -24 274 l-24
111 23 54 c31 71 37 197 11 229 -17 21 -25 22 -179 21 -89 0 -166 -3 -171 -6
-5 -3 -12 6 -15 20 -4 13 -16 28 -28 33 -12 4 -112 7 -223 6 -223 -1 -234 -4
-272 -72 -14 -26 -24 -33 -47 -33 -32 0 -55 23 -56 56 0 45 -19 49 -255 49
-122 1 -227 -1 -234 -3z m409 -137 c38 -61 64 -75 144 -75 39 0 77 4 85 9 8 5
24 29 35 53 l21 43 158 3 157 3 0 -36 c0 -36 28 -75 53 -75 7 0 30 12 52 27
36 25 46 26 154 27 l116 1 3 -26 c2 -14 -9 -52 -24 -85 -14 -32 -26 -67 -26
-79 0 -11 11 -72 26 -136 20 -92 26 -143 26 -241 0 -121 -1 -125 -27 -157 -26
-31 -82 -152 -83 -178 0 -6 12 -26 27 -44 27 -32 28 -36 29 -168 2 -169 -1
-154 29 -189 l25 -30 0 -402 c0 -378 -1 -401 -17 -396 -139 40 -191 40 -195
-1 0 -10 -2 -22 -3 -28 -2 -5 -3 -18 -4 -27 -1 -16 -14 -18 -128 -18 l-128 0
-49 56 c-54 61 -70 64 -128 21 -27 -20 -41 -22 -186 -23 -143 0 -162 -3 -212
-25 -47 -21 -70 -24 -164 -24 l-110 0 -34 45 c-53 69 -73 74 -122 28 -24 -23
-26 -23 -392 -23 l-367 0 6 23 c3 13 11 42 18 64 10 36 9 55 -12 142 -30 127
-30 136 -3 221 19 60 23 94 24 240 l2 169 -28 32 c-26 30 -28 37 -28 125 0 87
2 95 27 121 23 24 26 36 28 100 1 40 -2 87 -6 103 -4 17 -10 48 -13 70 -3 22
-8 54 -11 70 -18 110 -23 189 -21 415 l1 255 248 -1 247 -1 26 -24 c24 -22 35
-24 144 -27 138 -4 188 11 236 72 l29 36 162 0 161 0 22 -35z"/>
<path d="M950 2546 c-64 -17 -121 -35 -128 -39 -16 -11 -16 -62 1 -79 6 -7 46
-53 87 -103 41 -49 77 -92 80 -95 3 -3 15 -17 26 -32 23 -30 100 -121 155
-183 19 -22 82 -96 139 -165 130 -156 706 -841 753 -895 l35 -40 166 -1 c140
-1 168 2 180 15 21 24 186 420 186 447 0 29 62 -22 -799 644 -468 363 -731
560 -745 559 -11 -1 -73 -15 -136 -33z"/>
<path d="M2090 2516 c-190 -65 -219 -83 -205 -125 9 -29 503 -401 532 -401 13
0 29 10 36 23 19 29 74 366 68 414 -2 17 -206 153 -228 152 -10 0 -101 -29
-203 -63z"/>
<path d="M947 1548 c-18 -14 -137 -412 -137 -459 0 -19 10 -35 38 -55 20 -16
44 -34 52 -41 61 -50 181 -133 192 -133 7 0 96 27 198 61 197 65 226 82 210
124 -10 26 -465 486 -499 504 -25 14 -33 14 -54 -1z"/>
</g>
</svg>
